<svg width="17" height="18" viewBox="0 0 17 18" fill="none" xmlns="http://www.w3.org/2000/svg">
<path d="M8.50008 2.2803C4.59008 2.2803 1.41675 5.45364 1.41675 9.36364C1.41675 13.2736 4.59008 16.447 8.50008 16.447C12.4101 16.447 15.5834 13.2736 15.5834 9.36364C15.5834 5.45364 12.4101 2.2803 8.50008 2.2803ZM8.50008 15.0303C5.36925 15.0303 2.83341 12.4945 2.83341 9.36364C2.83341 6.2328 5.36925 3.69697 8.50008 3.69697C11.6309 3.69697 14.1667 6.2328 14.1667 9.36364C14.1667 12.4945 11.6309 15.0303 8.50008 15.0303Z" fill="#383C36"/>
<path d="M8.5 13C10.433 13 12 11.433 12 9.5C12 7.567 10.433 6 8.5 6C6.567 6 5 7.567 5 9.5C5 11.433 6.567 13 8.5 13Z" fill="#383C36"/>
</svg>
