<svg width="40" height="40" viewBox="0 0 40 40" fill="none" xmlns="http://www.w3.org/2000/svg">
<g clip-path="url(#clip0_720_18)">
<path d="M62.7 15.0875C57.15 10.8021 50.2875 7.96877 42.75 7.26044V14.4146C48.225 15.0521 53.2125 17.1063 57.375 20.1521L62.7 15.0875ZM68.7375 38.9584H76.3125C75.5625 31.8396 72.5625 25.3584 68.025 20.1167L62.6625 25.1459C65.8875 29.0771 68.0625 33.7875 68.7375 38.9584ZM62.6625 59.8542L68.025 64.9188C72.5625 59.6771 75.5625 53.1604 76.3125 46.0771H68.7375C68.0625 51.2125 65.8875 55.9229 62.6625 59.8542ZM42.75 70.5854V77.7396C50.2875 77.0313 57.15 74.1979 62.7 69.9125L57.3375 64.8479C53.2125 67.8938 48.225 69.9479 42.75 70.5854ZM52.4625 37.5063L42.75 46.6438V24.7917H35.25V46.6438L25.5375 37.4709L20.25 42.5L39 60.2084L57.75 42.5L52.4625 37.5063ZM35.25 70.5854V77.7396C16.3125 75.9688 1.5 60.8813 1.5 42.5C1.5 24.1188 16.3125 9.03127 35.25 7.26044V14.4146C20.4375 16.15 9 28.05 9 42.5C9 56.95 20.4375 68.85 35.25 70.5854Z" fill="#028090"/>
</g>
<defs>
<clipPath id="clip0_720_18">
<rect width="78" height="81" fill="white"/>
</clipPath>
</defs>
</svg>
