<svg width="44" height="44" viewBox="0 0 44 44" fill="none" xmlns="http://www.w3.org/2000/svg">
    <path d="M14.2333 3.16667H36.1833C38.0333 3.16667 39.5167 4.65 39.5167 6.5V26.5C39.5167 27.0667 39.3833 27.6 39.1333 28.0667L36.1833 25.1167V16.5H27.5667L20.9 9.83333H36.1833V6.5H17.5667L14.2333 3.16667ZM37 35.35L31.4667 29.8333H9.51667C7.66667 29.8333 6.18333 28.35 6.18333 26.5L6.2 6.5C6.2 5.93333 6.33333 5.4 6.58333 4.95L4 2.35L6.35 0L39.35 33L37 35.35ZM9.51667 7.88333V9.83333H11.4667L9.51667 7.88333ZM28.1333 26.5L18.1333 16.5H9.51667V26.5H28.1333Z" fill="#585C56"/>
    <path d="M27.7738 16L22.1071 10.3333H36.1833H36.6833V9.83333V6.5V6H36.1833H17.7738L15.4404 3.66667H36.1833C37.7572 3.66667 39.0167 4.92614 39.0167 6.5V26.5C39.0167 26.7315 38.9909 26.9549 38.9413 27.1676L36.6833 24.9096V16.5V16H36.1833H27.7738ZM6.35 0.707107L38.6429 33L36.9995 34.6434L31.8197 29.4792L31.6733 29.3333H31.4667H9.51667C7.94295 29.3333 6.68356 28.0741 6.68333 26.5004C6.68333 26.5003 6.68333 26.5001 6.68333 26.5L6.7 6.50042V6.5C6.7 6.01096 6.8151 5.56238 7.02041 5.19282L7.20296 4.86423L6.93802 4.59759L4.70597 2.35114L6.35 0.707107ZM9.87022 7.52978L9.01667 6.67623V7.88333V9.83333V10.3333H9.51667H11.4667H12.6738L11.8202 9.47978L9.87022 7.52978ZM28.1333 27H29.3404L28.4869 26.1464L18.4869 16.1464L18.3404 16H18.1333H9.51667H9.01667V16.5V26.5V27H9.51667H28.1333Z" stroke="black"/>
</svg>
