<svg width="40" height="40" viewBox="0 0 40 40" fill="none" xmlns="http://www.w3.org/2000/svg">
<path d="M25.8333 18.3333C27.214 18.3333 28.3333 17.214 28.3333 15.8333C28.3333 14.4526 27.214 13.3333 25.8333 13.3333C24.4525 13.3333 23.3333 14.4526 23.3333 15.8333C23.3333 17.214 24.4525 18.3333 25.8333 18.3333Z" fill="#585C56"/>
<path d="M19.9999 23.3333C16.1166 23.3333 12.7999 25.75 11.4666 29.1666H14.2499C15.3999 27.1833 17.5333 25.8333 19.9999 25.8333C22.4666 25.8333 24.5833 27.1833 25.7499 29.1666H28.5333C27.1999 25.75 23.8833 23.3333 19.9999 23.3333ZM19.9833 3.33331C10.7833 3.33331 3.33325 10.8 3.33325 20C3.33325 29.2 10.7833 36.6666 19.9833 36.6666C29.1999 36.6666 36.6666 29.2 36.6666 20C36.6666 10.8 29.1999 3.33331 19.9833 3.33331ZM19.9999 33.3333C12.6333 33.3333 6.66659 27.3666 6.66659 20C6.66659 12.6333 12.6333 6.66665 19.9999 6.66665C27.3666 6.66665 33.3333 12.6333 33.3333 20C33.3333 27.3666 27.3666 33.3333 19.9999 33.3333Z" fill="#585C56"/>
<path d="M14.1667 18.3333C15.5475 18.3333 16.6667 17.214 16.6667 15.8333C16.6667 14.4526 15.5475 13.3333 14.1667 13.3333C12.786 13.3333 11.6667 14.4526 11.6667 15.8333C11.6667 17.214 12.786 18.3333 14.1667 18.3333Z" fill="#585C56"/>
</svg>
